<svg id="b4595d42-085a-47ba-8f18-cad36d2290fa" data-name="Layer 1" xmlns="http://www.w3.org/2000/svg" viewBox="0 0 364 364"><defs><style>.a0687eea-0982-4b77-a39f-bf701216144a,.a3d60d01-644c-4cb6-b0fe-a722ed050b44,.b06105f5-2b7c-4930-993d-ee360282c59c,.b0eeba55-07cb-4462-9a48-015a60860d30,.b49e2d33-e4e6-4745-b837-45563b2fa68a,.b74e0080-1e78-4c78-a7d3-1e087646026a,.bf2a9fe0-a078-442f-b659-84b3d4d692a4,.edd203e7-171b-4dff-aa82-59848a934d4f,.f05b1d54-f00a-4ba5-8206-da55604302b6,.f79acf38-e0ce-4c5c-9d40-0f104ba0b105{fill:none;}.b49e2d33-e4e6-4745-b837-45563b2fa68a,.f79acf38-e0ce-4c5c-9d40-0f104ba0b105{stroke:#659cc8;}.a3d60d01-644c-4cb6-b0fe-a722ed050b44,.b06105f5-2b7c-4930-993d-ee360282c59c,.b49e2d33-e4e6-4745-b837-45563b2fa68a,.f79acf38-e0ce-4c5c-9d40-0f104ba0b105{stroke-width:2px;}.b49e2d33-e4e6-4745-b837-45563b2fa68a{stroke-dasharray:2 45 161;}.f05b1d54-f00a-4ba5-8206-da55604302b6,.f79acf38-e0ce-4c5c-9d40-0f104ba0b105{stroke-dasharray:76 4 70;}.f79acf38-e0ce-4c5c-9d40-0f104ba0b105{opacity:0.19;}.a0687eea-0982-4b77-a39f-bf701216144a,.a3d60d01-644c-4cb6-b0fe-a722ed050b44,.bf2a9fe0-a078-442f-b659-84b3d4d692a4,.edd203e7-171b-4dff-aa82-59848a934d4f,.f79acf38-e0ce-4c5c-9d40-0f104ba0b105{isolation:isolate;}.a0687eea-0982-4b77-a39f-bf701216144a,.f05b1d54-f00a-4ba5-8206-da55604302b6{stroke:#78afa0;}.a0687eea-0982-4b77-a39f-bf701216144a,.b74e0080-1e78-4c78-a7d3-1e087646026a,.edd203e7-171b-4dff-aa82-59848a934d4f,.f05b1d54-f00a-4ba5-8206-da55604302b6{stroke-width:4px;}.a0687eea-0982-4b77-a39f-bf701216144a{stroke-dasharray:46 2 12;}.a0687eea-0982-4b77-a39f-bf701216144a,.a3d60d01-644c-4cb6-b0fe-a722ed050b44{opacity:0.28;}.b74e0080-1e78-4c78-a7d3-1e087646026a,.edd203e7-171b-4dff-aa82-59848a934d4f{stroke:#d36f2b;}.b74e0080-1e78-4c78-a7d3-1e087646026a{stroke-dasharray:51 4 10 80;}.edd203e7-171b-4dff-aa82-59848a934d4f{stroke-dasharray:140 4 10 80;opacity:0.44;}.a3d60d01-644c-4cb6-b0fe-a722ed050b44,.b06105f5-2b7c-4930-993d-ee360282c59c{stroke:#c24127;stroke-dasharray:35 7 10 80;}.b0eeba55-07cb-4462-9a48-015a60860d30,.bf2a9fe0-a078-442f-b659-84b3d4d692a4{stroke:#dda131;stroke-width:8px;}.b0eeba55-07cb-4462-9a48-015a60860d30{stroke-dasharray:76 2 40 180;}.bf2a9fe0-a078-442f-b659-84b3d4d692a4{stroke-dasharray:56 2 4;opacity:0.69;}.ac507629-4f34-42b4-b900-9a9f913b06b7{fill:#fff;}.a167b12b-7efd-4233-a727-f93a6d949add,.ac507629-4f34-42b4-b900-9a9f913b06b7{stroke:#231f20;stroke-miterlimit:10;}.a167b12b-7efd-4233-a727-f93a6d949add{fill:#e6e7e8;}</style></defs><circle class="b49e2d33-e4e6-4745-b837-45563b2fa68a" cx="182" cy="182" r="181"/><path class="f79acf38-e0ce-4c5c-9d40-0f104ba0b105" d="M86,181.83c-42.24,90.58-3,198.25,87.52,240.48S371.77,425.36,414,334.79s3.05-198.25-87.52-240.48S128.23,91.26,86,181.83Z" transform="translate(-68 -76.31)"/><circle class="f05b1d54-f00a-4ba5-8206-da55604302b6" cx="182" cy="182" r="159"/><circle class="a0687eea-0982-4b77-a39f-bf701216144a" cx="182" cy="182" r="159"/><circle class="b74e0080-1e78-4c78-a7d3-1e087646026a" cx="182" cy="182" r="141"/><path class="edd203e7-171b-4dff-aa82-59848a934d4f" d="M318.35,381.61A141,141,0,1,0,126.7,326.66a141,141,0,0,0,191.65,54.95Z" transform="translate(-68 -76.31)"/><circle class="b06105f5-2b7c-4930-993d-ee360282c59c" cx="182" cy="182" r="130"/><circle class="a3d60d01-644c-4cb6-b0fe-a722ed050b44" cx="182" cy="182" r="130"/><circle class="b0eeba55-07cb-4462-9a48-015a60860d30" cx="182" cy="182" r="150"/><path class="bf2a9fe0-a078-442f-b659-84b3d4d692a4" d="M159.73,378.1A150,150,0,1,0,130.21,168,150,150,0,0,0,159.73,378.1Z" transform="translate(-68 -76.31)"/><polygon class="ac507629-4f34-42b4-b900-9a9f913b06b7" points="139.79 267.19 161.79 278.19 183.79 267.19 183.79 198.19 268.79 133.19 184.79 69.19 139.79 98.19 139.79 267.19"/><polyline class="a167b12b-7efd-4233-a727-f93a6d949add" points="161.79 278.19 161.79 105.19 184.79 89.19 246.79 133.19 171.79 190.19 183.79 198.19"/><polyline class="ac507629-4f34-42b4-b900-9a9f913b06b7" points="171.79 190.19 183.79 163.19 219.79 133.19 183.79 113.19 183.79 163.19"/></svg>