<?xml version="1.0" encoding="utf-8"?>
<!-- Generator: Adobe Illustrator 25.2.1, SVG Export Plug-In . SVG Version: 6.00 Build 0)  -->
<svg version="1.1" id="b4595d42-085a-47ba-8f18-cad36d2290fa"
	 xmlns="http://www.w3.org/2000/svg" xmlns:xlink="http://www.w3.org/1999/xlink" x="0px" y="0px" viewBox="0 0 364 364"
	 style="enable-background:new 0 0 364 364;" xml:space="preserve">
<style type="text/css">
	.st0{fill:none;stroke:#659CC8;stroke-width:2;stroke-dasharray:2,45,161;}
	.st1{opacity:0.19;fill:none;stroke:#659CC8;stroke-width:2;stroke-dasharray:76,4,70;enable-background:new    ;}
	.st2{fill:none;stroke:#78AFA0;stroke-width:4;stroke-dasharray:76,4,70;}
	.st3{opacity:0.28;fill:none;stroke:#78AFA0;stroke-width:4;stroke-dasharray:46,2,12;enable-background:new    ;}
	.st4{fill:none;stroke:#D36F2B;stroke-width:4;stroke-dasharray:51,4,10,80;}
	.st5{opacity:0.44;fill:none;stroke:#D36F2B;stroke-width:4;stroke-dasharray:140,4,10,80;enable-background:new    ;}
	.st6{fill:none;stroke:#C24127;stroke-width:2;stroke-dasharray:35,7,10,80;}
	.st7{opacity:0.28;fill:none;stroke:#C24127;stroke-width:2;stroke-dasharray:35,7,10,80;enable-background:new    ;}
	.st8{fill:none;stroke:#DDA131;stroke-width:8;stroke-dasharray:76,2,40,180;}
	.st9{opacity:0.69;fill:none;stroke:#DDA131;stroke-width:8;stroke-dasharray:56,2,4;enable-background:new    ;}
	.st10{fill:#FFFFFF;stroke:#231F20;stroke-miterlimit:10;}
	.st11{fill:#E6E7E8;stroke:#231F20;stroke-miterlimit:10;}
</style>
<circle class="st0" cx="182" cy="182" r="181"/>
<path class="st1" d="M144.4,359c97.8,20.8,193.8-41.7,214.6-139.4S317.4,25.8,219.6,5S25.8,46.6,5,144.4S46.6,338.2,144.4,359z"/>
<circle class="st2" cx="182" cy="182" r="159"/>
<circle class="st3" cx="182" cy="182" r="159"/>
<circle class="st4" cx="182" cy="182" r="141"/>
<path class="st5" d="M321.3,204C333.5,127.1,281,54.9,204.1,42.7S54.9,83,42.7,159.9C30.6,236.8,83,309,159.9,321.2l0,0
	C236.9,333.4,309.1,280.9,321.3,204L321.3,204z"/>
<circle class="st6" cx="182" cy="182" r="130"/>
<circle class="st7" cx="182" cy="182" r="130"/>
<circle class="st8" cx="182" cy="182" r="150"/>
<path class="st9" d="M304.9,95.9c-47.6-67.8-141.1-84.3-209-36.8S11.6,200.2,59.1,268s141,84.3,208.9,36.8
	C335.9,257.4,352.4,163.8,304.9,95.9C304.9,96,304.9,95.9,304.9,95.9z"/>
<polygon class="st10" points="139.8,267.2 161.8,278.2 183.8,267.2 183.8,198.2 268.8,133.2 184.8,69.2 139.8,98.2 "/>
<polyline class="st11" points="161.8,278.2 161.8,105.2 184.8,89.2 246.8,133.2 171.8,190.2 183.8,198.2 "/>
<polyline class="st10" points="171.8,190.2 183.8,163.2 219.8,133.2 183.8,113.2 183.8,163.2 "/>
</svg>
